Coordinates
version=1
nRows=15
nColumns=46
inDegrees=yes

Units are S.I. units (second, meters, Newtons, ...)
Angles are in degrees.

endheader
time	pelvis_tilt	pelvis_list	pelvis_rotation	pelvis_tx	pelvis_ty	pelvis_tz	bb_angle	bb_tx	bb_ty	bb_tz	hip_flexion_r	hip_adduction_r	hip_rotation_r	knee_angle_r	knee_angle_r_beta	ankle_angle_r	subtalar_angle_r	mtp_angle_r	crank_angle_r	hip_flexion_l	hip_adduction_l	hip_rotation_l	knee_angle_l	knee_angle_l_beta	ankle_angle_l	subtalar_angle_l	mtp_angle_l	crank_angle_l	lumbar_extension	lumbar_bending	lumbar_rotation	arm_flex_r	arm_add_r	arm_rot_r	elbow_flex_r	pro_sup_r	wrist_flex_r	wrist_dev_r	arm_flex_l	arm_add_l	arm_rot_l	elbow_flex_l	pro_sup_l	wrist_flex_l	wrist_dev_l
      0.00500000	    -18.08130853	     -6.53173679	     -5.31563222	      0.12894098	      1.13582910	     -0.24837946	      0.00000000	      0.50000000	      0.00000000	      0.25000000	     95.30594223	     -4.93332114	     -8.48424936	    106.76154708	      1.86334051	      6.87339054	     -4.29185738	      0.00000000	      0.00000000	     45.32247847	    -12.81522678	      0.07281194	     47.41992537	      0.82763383	     11.27948762	     -2.00039202	      0.00000000	      0.00000000	    -53.77686522	      5.62033722	     11.16805576	     89.84483497	      2.90047915	     21.38985284	     36.73326969	     18.68948833	      0.00000000	      0.00000000	     89.76579025	      3.45635031	     23.65409756	     32.19268430	     19.99490726	      0.00000000	      0.00000000
      0.01000000	    -18.08986230	     -6.49214529	     -5.34826045	      0.12893825	      1.13576517	     -0.24837888	      0.00000000	      0.50000000	      0.00000000	      0.25000000	     95.29720763	     -4.88575002	     -8.47503089	    106.41555352	      1.85730178	      6.98370093	     -4.17036999	      0.00000000	      0.00000000	     45.48708672	    -12.81692088	      0.11643402	     48.04851282	      0.83860475	     11.32603600	     -2.09172288	      0.00000000	      0.00000000	    -53.76657089	      5.57670267	     11.14960488	     89.84490817	      3.13009170	     20.44884339	     35.77960522	     23.67905522	      0.00000000	      0.00000000	     89.76507237	      3.68224646	     22.49934249	     31.44013910	     24.16381172	      0.00000000	      0.00000000
      0.01500000	    -18.08212226	     -6.49277572	     -5.35566242	      0.12887727	      1.13572489	     -0.24840799	      0.00000000	      0.50000000	      0.00000000	      0.25000000	     95.24375509	     -4.85832474	     -8.50702978	    106.04330697	      1.85080486	      7.04826946	     -4.12700592	      0.00000000	      0.00000000	     45.67822465	    -12.85105301	      0.16803467	     48.71928258	      0.85031189	     11.36251324	     -2.11777253	      0.00000000	      0.00000000	    -53.74733726	      5.58945965	     11.16334629	     89.84566373	      2.68378234	     21.90066427	     36.03760409	     22.02169431	      0.00000000	      0.00000000	     89.76650593	      3.32509226	     23.86611880	     31.60167827	     22.85997421	      0.00000000	      0.00000000
      0.02000000	    -17.97581755	     -6.47677874	     -5.35264626	      0.12888903	      1.13603404	     -0.24845104	      0.00000000	      0.50000000	      0.00000000	      0.25000000	     95.06540276	     -4.84768141	     -8.52965486	    105.66690601	      1.84423542	      7.17511732	     -3.99981185	      0.00000000	      0.00000000	     45.72147761	    -12.86531959	      0.18887307	     49.31408737	      0.86069319	     11.38608062	     -2.14113078	      0.00000000	      0.00000000	    -53.91210796	      5.58495278	     11.15067577	     89.84555670	      2.93862914	     21.18314798	     36.05561429	     22.77347482	      0.00000000	      0.00000000	     89.76445629	      3.47628953	     23.08644628	     31.69956044	     23.55146887	      0.00000000	      0.00000000
      0.02500000	    -18.09912809	     -6.47221152	     -5.34823686	      0.12883017	      1.13560979	     -0.24848712	      0.00000000	      0.50000000	      0.00000000	      0.25000000	     95.14716802	     -4.80755532	     -8.53870807	    105.28621450	      1.83759110	      7.21354845	     -4.04145177	      0.00000000	      0.00000000	     46.10040578	    -12.88268417	      0.30383505	     50.06451793	      0.87379068	     11.50405977	     -2.14990852	      0.00000000	      0.00000000	    -53.73367723	      5.61366917	     11.16287986	     89.84557584	      2.70749368	     21.76458594	     35.71149272	     23.98208004	      0.00000000	      0.00000000	     89.76688948	      3.37981181	     23.71183641	     31.24463434	     24.68264532	      0.00000000	      0.00000000
      0.03000000	    -18.08253145	     -6.42802604	     -5.36264813	      0.12882950	      1.13566625	     -0.24846029	      0.00000000	      0.50000000	      0.00000000	      0.25000000	     95.06367071	     -4.79097633	     -8.54565236	    104.89865254	      1.83082687	      7.30135435	     -3.89781156	      0.00000000	      0.00000000	     46.25964570	    -12.88367276	      0.32322409	     50.70740656	      0.88501120	     11.55370731	     -2.15858800	      0.00000000	      0.00000000	    -53.75903837	      5.58157657	     11.12061839	     89.84540087	      2.95859305	     21.05930154	     35.65152485	     24.35247315	      0.00000000	      0.00000000	     89.76545905	      3.56433350	     22.95276049	     31.18520645	     25.03796309	      0.00000000	      0.00000000
      0.03500000	    -18.04793800	     -6.38586789	     -5.35491695	      0.12880642	      1.13574140	     -0.24856598	      0.00000000	      0.50000000	      0.00000000	      0.25000000	     94.94885958	     -4.76694444	     -8.52508692	    104.50258549	      1.82391419	      7.41680012	     -3.79535716	      0.00000000	      0.00000000	     46.41326163	    -12.86093872	      0.34343224	     51.35873435	      0.89637901	     11.58287855	     -2.25423279	      0.00000000	      0.00000000	    -53.81884165	      5.58189314	     11.08449514	     89.84547231	      3.09461673	     20.58841221	     35.60898871	     25.02622261	      0.00000000	      0.00000000	     89.76412900	      3.62453966	     22.44463709	     31.15278086	     25.68425068	      0.00000000	      0.00000000
      0.04000000	    -18.10674813	     -6.37674044	     -5.36350687	      0.12871333	      1.13558262	     -0.24851071	      0.00000000	      0.50000000	      0.00000000	      0.25000000	     94.93293230	     -4.74241995	     -8.57421587	    104.09189919	      1.81674637	      7.41075299	     -3.79966177	      0.00000000	      0.00000000	     46.71354763	    -12.89003832	      0.43023352	     52.07396391	      0.90886212	     11.60048190	     -2.25521863	      0.00000000	      0.00000000	    -53.72928040	      5.57833633	     11.08454720	     89.84504982	      3.05140580	     20.72573258	     35.63355723	     24.47876108	      0.00000000	      0.00000000	     89.76603722	      3.60789151	     22.69694846	     31.11726282	     25.21745831	      0.00000000	      0.00000000
      0.04500000	    -18.05997981	     -6.31861922	     -5.32004714	      0.12866385	      1.13562754	     -0.24863535	      0.00000000	      0.50000000	      0.00000000	      0.25000000	     94.80330722	     -4.75941792	     -8.53685284	    103.69185319	      1.80976425	      7.49731014	     -3.72551097	      0.00000000	      0.00000000	     46.87320475	    -12.83210111	      0.47642481	     52.73706198	      0.92043537	     11.65811922	     -2.22820897	      0.00000000	      0.00000000	    -53.76288973	      5.56821090	     11.00228085	     89.84530727	      2.88864045	     21.56541948	     36.67681837	     19.30325399	      0.00000000	      0.00000000	     89.76573271	      3.32649895	     24.01678848	     31.96031719	     20.81411034	      0.00000000	      0.00000000
      0.05000000	    -18.08512460	     -6.28682362	     -5.34767060	      0.12864193	      1.13558037	     -0.24857136	      0.00000000	      0.50000000	      0.00000000	      0.25000000	     94.72109504	     -4.71225614	     -8.57094319	    103.25474958	      1.80213535	      7.55676395	     -3.64883765	      0.00000000	      0.00000000	     47.11744188	    -12.85606284	      0.50359634	     53.43272026	      0.93257690	     11.68955885	     -2.30393217	      0.00000000	      0.00000000	    -53.72274633	      5.53416658	     11.01450870	     89.84505452	      2.79371013	     21.71080792	     35.98352785	     22.88095773	      0.00000000	      0.00000000	     89.76790946	      3.35705392	     23.87054410	     31.35851894	     23.63769217	      0.00000000	      0.00000000
      0.05500000	    -17.89744696	     -6.11391898	     -5.51662737	      0.12878063	      1.13606288	     -0.24810332	      0.00000000	      0.50000000	      0.00000000	      0.25000000	     94.44985617	     -4.44497827	     -8.40012561	    102.84187470	      1.79492932	      7.71038046	     -3.47511566	      0.00000000	      0.00000000	     47.02141110	    -12.95160713	      0.15539410	     54.04597488	      0.94328021	     11.74018690	     -2.06409706	      0.00000000	      0.00000000	    -54.00751320	      5.20003531	     10.88540302	     89.84647704	      3.42887199	     19.61184524	     35.45068680	     26.96504465	      0.00000000	      0.00000000	     89.76017995	      3.67193943	     21.59784935	     31.26461305	     27.44118994	      0.00000000	      0.00000000
      0.06000000	    -18.09928607	     -6.18897088	     -5.33485842	      0.12851241	      1.13551533	     -0.24860157	      0.00000000	      0.50000000	      0.00000000	      0.25000000	     94.52481234	     -4.66229683	     -8.55095413	    102.38060879	      1.78687871	      7.63055933	     -3.51432918	      0.00000000	      0.00000000	     47.59542971	    -12.82882378	      0.56834784	     54.83649383	      0.95707737	     11.73915225	     -2.36456531	      0.00000000	      0.00000000	    -53.74739368	      5.47831510	     10.90162841	     89.84452133	      3.42933350	     19.51439668	     35.27695787	     27.15420486	      0.00000000	      0.00000000	     89.76445739	      3.80785113	     21.54728019	     30.88043217	     27.38934286	      0.00000000	      0.00000000
      0.06500000	    -18.06708960	     -6.12608672	     -5.32199564	      0.12846694	      1.13558101	     -0.24865310	      0.00000000	      0.50000000	      0.00000000	      0.25000000	     94.37006560	     -4.62587184	     -8.51512387	    101.93325921	      1.77907099	      7.66083543	     -3.48252118	      0.00000000	      0.00000000	     47.78580918	    -12.79757673	      0.58791291	     55.52283014	      0.96905620	     11.68623017	     -2.40028953	      0.00000000	      0.00000000	    -53.74804495	      5.45501055	     10.85188402	     89.84471421	      3.10022403	     20.94478120	     36.92815364	     18.42650104	      0.00000000	      0.00000000	     89.76725876	      3.29152551	     24.00521086	     32.09401174	     20.32033943	      0.00000000	      0.00000000
      0.07000000	    -17.90434848	     -6.07962342	     -5.35445752	      0.12855023	      1.13602746	     -0.24857614	      0.00000000	      0.50000000	      0.00000000	      0.25000000	     94.04066548	     -4.56209002	     -8.53279822	    101.46550063	      1.77090706	      7.76343557	     -3.39433872	      0.00000000	      0.00000000	     47.79385411	    -12.84806501	      0.48913532	     56.17297221	      0.98040332	     11.79889333	     -2.27688425	      0.00000000	      0.00000000	    -53.97724418	      5.37713087	     10.81511227	     89.84564252	      3.33945369	     20.04485261	     36.16114234	     23.02003287	      0.00000000	      0.00000000	     89.76376654	      3.47652032	     22.67317985	     31.77369524	     23.76697097	      0.00000000	      0.00000000
      0.07500000	    -18.04571399	     -6.01868677	     -5.28194852	      0.12834571	      1.13557038	     -0.24868649	      0.00000000	      0.50000000	      0.00000000	      0.25000000	     94.09026578	     -4.59540967	     -8.50674718	    101.02222103	      1.76317037	      7.72449158	     -3.43536056	      0.00000000	      0.00000000	     48.25068519	    -12.74308670	      0.66781812	     56.93472014	      0.99369833	     11.73047359	     -2.44106746	      0.00000000	      0.00000000	    -53.74706947	      5.38323030	     10.74206146	     89.84515627	      3.00525623	     21.20910644	     36.94300211	     18.15568252	      0.00000000	      0.00000000	     89.76558578	      3.39241767	     23.63292199	     32.28490481	     19.67896675	      0.00000000	      0.00000000
